<svg width="209" height="90" viewBox="0 0 209 90" fill="none" xmlns="http://www.w3.org/2000/svg">
<g clip-path="url(#clip0_3047_11180)">
<path d="M14.0803 58.9823H2.05639V32.1637H14.0803C15.8097 32.188 17.2488 32.3821 18.3975 32.746C20.3542 33.3646 21.9384 34.4987 23.1503 36.1483C24.1223 37.4826 24.785 38.926 25.1385 40.4786C25.4919 42.0312 25.6687 43.511 25.6687 44.918C25.6687 48.4841 24.9239 51.5044 23.4343 53.9788C21.4145 57.3145 18.2965 58.9823 14.0803 58.9823ZM18.4165 39.0048C17.5202 37.5493 15.7466 36.8215 13.0957 36.8215H7.71804V54.3245H13.0957C15.8476 54.3245 17.7664 53.0206 18.852 50.4127C19.4453 48.9814 19.7419 47.2772 19.7419 45.3001C19.7419 42.571 19.3001 40.4725 18.4165 39.0048Z" fill="white"/>
<path d="M47.3117 53.1601C47.1728 54.3367 46.5354 55.5314 45.3992 56.7444C43.6319 58.673 41.1577 59.6373 37.9766 59.6373C35.3509 59.6373 33.0345 58.8246 31.0274 57.1993C29.0202 55.5739 28.0167 52.9296 28.0167 49.2665C28.0167 45.8338 28.9192 43.2017 30.7244 41.3701C32.5422 39.5386 34.8965 38.6228 37.7873 38.6228C39.504 38.6228 41.0504 38.9321 42.4264 39.5507C43.8024 40.1693 44.9385 41.1457 45.8347 42.48C46.6426 43.6566 47.1665 45.0211 47.4064 46.5737C47.5452 47.4834 47.602 48.7934 47.5768 50.5037H33.4511C33.5268 52.493 34.1769 53.8879 35.4014 54.6884C36.1462 55.1857 37.0425 55.4344 38.0902 55.4344C39.2011 55.4344 40.1037 55.1312 40.798 54.5247C41.1767 54.1972 41.5112 53.7423 41.8015 53.1601H47.3117ZM41.9719 47.0832C41.8836 45.7125 41.4481 44.6754 40.6654 43.9719C39.8954 43.2563 38.936 42.8985 37.7873 42.8985C36.5375 42.8985 35.5655 43.2745 34.8712 44.0265C34.1896 44.7785 33.7604 45.7974 33.5836 47.0832H41.9719Z" fill="white"/>
<path d="M62.8197 44.6087C62.3652 43.6505 61.4753 43.1714 60.1498 43.1714C58.6097 43.1714 57.5746 43.6505 57.0444 44.6087C56.7541 45.1546 56.6089 45.9672 56.6089 47.0468V58.9823H51.1366V39.1868H56.3817V42.0797C57.0507 41.0487 57.6819 40.3148 58.2752 39.8782C59.323 39.1019 60.68 38.7137 62.3463 38.7137C63.9242 38.7137 65.1992 39.0473 66.1712 39.7144C66.9539 40.333 67.5472 41.1275 67.9511 42.0979C68.6581 40.9335 69.5354 40.0783 70.5831 39.5325C71.694 38.9867 72.9311 38.7137 74.2945 38.7137C75.2034 38.7137 76.0996 38.8836 76.9833 39.2232C77.8669 39.5628 78.6685 40.1572 79.388 41.0062C79.9687 41.6976 80.3601 42.5467 80.562 43.5534C80.6883 44.2206 80.7514 45.197 80.7514 46.4827L80.7135 58.9823H75.1844V46.3554C75.1844 45.6034 75.0582 44.9847 74.8057 44.4996C74.326 43.5777 73.4424 43.1168 72.1548 43.1168C70.6652 43.1168 69.6364 43.7111 69.0683 44.8998C68.778 45.5306 68.6328 46.2887 68.6328 47.1741V58.9823H63.1984V47.1741C63.1984 45.9976 63.0722 45.1424 62.8197 44.6087Z" fill="white"/>
<path d="M102.944 41.6612C104.686 43.7597 105.557 46.2402 105.557 49.1027C105.557 52.0139 104.686 54.5065 102.944 56.5806C101.201 58.6427 98.5569 59.6737 95.0096 59.6737C91.4624 59.6737 88.8178 58.6427 87.0758 56.5806C85.3337 54.5065 84.4627 52.0139 84.4627 49.1027C84.4627 46.2402 85.3337 43.7597 87.0758 41.6612C88.8178 39.5628 91.4624 38.5136 95.0096 38.5136C98.5569 38.5136 101.201 39.5628 102.944 41.6612ZM94.9907 42.8985C93.4128 42.8985 92.1946 43.4382 91.3362 44.5178C90.4904 45.5852 90.0675 47.1135 90.0675 49.1027C90.0675 51.092 90.4904 52.6264 91.3362 53.7059C92.1946 54.7855 93.4128 55.3252 94.9907 55.3252C96.5686 55.3252 97.7805 54.7855 98.6263 53.7059C99.4721 52.6264 99.8949 51.092 99.8949 49.1027C99.8949 47.1135 99.4721 45.5852 98.6263 44.5178C97.7805 43.4382 96.5686 42.8985 94.9907 42.8985Z" fill="white"/>
<path d="M128.374 58.9823H121.86L116.918 50.5037L114.683 52.7416V58.9823H109.382V32.2547H114.683V46.7011L121.405 39.2414H128.09L120.875 46.8284L128.374 58.9823Z" fill="white"/>
<path d="M141.401 43.9355C139.23 43.9355 137.772 44.6148 137.027 45.9733C136.61 46.7375 136.402 47.914 136.402 49.503V58.9823H130.968V39.1504H136.118V42.6073C136.951 41.2852 137.677 40.3816 138.296 39.8964C139.306 39.0837 140.618 38.6773 142.234 38.6773C142.335 38.6773 142.417 38.6834 142.48 38.6955C142.556 38.6955 142.714 38.7016 142.954 38.7137V44.0265C142.613 43.9901 142.31 43.9659 142.045 43.9537C141.78 43.9416 141.565 43.9355 141.401 43.9355Z" fill="white"/>
<path d="M146.911 41.2973C148.338 39.5507 150.787 38.6773 154.258 38.6773C156.518 38.6773 158.525 39.1079 160.28 39.9692C162.034 40.8304 162.912 42.4557 162.912 44.8453V53.9425C162.912 54.5732 162.924 55.3374 162.949 56.235C162.987 56.9142 163.095 57.3751 163.271 57.6177C163.448 57.8603 163.713 58.0605 164.067 58.2181V58.9823H158.197C158.033 58.582 157.919 58.206 157.856 57.8543C157.793 57.5025 157.742 57.1022 157.704 56.6534C156.96 57.4297 156.101 58.0908 155.129 58.6366C153.968 59.2795 152.655 59.6009 151.191 59.6009C149.322 59.6009 147.776 59.0915 146.551 58.0726C145.34 57.0416 144.734 55.586 144.734 53.7059C144.734 51.2679 145.712 49.503 147.669 48.4114C148.742 47.817 150.32 47.3925 152.402 47.1377L154.239 46.9194C155.236 46.7981 155.95 46.6465 156.379 46.4646C157.149 46.1492 157.534 45.6579 157.534 44.9908C157.534 44.1781 157.237 43.6202 156.644 43.3169C156.063 43.0016 155.205 42.8439 154.069 42.8439C152.794 42.8439 151.891 43.1471 151.361 43.7536C150.982 44.2024 150.73 44.8089 150.604 45.573H145.396C145.51 43.8385 146.015 42.4133 146.911 41.2973ZM150.926 55.2343C151.43 55.6345 152.049 55.8347 152.781 55.8347C153.943 55.8347 155.009 55.5072 155.981 54.8522C156.966 54.1972 157.477 53.0024 157.515 51.2679V49.3393C157.174 49.5455 156.827 49.7153 156.474 49.8487C156.133 49.97 155.659 50.0852 155.053 50.1944L153.842 50.4127C152.705 50.6068 151.891 50.8433 151.399 51.1223C150.566 51.5954 150.149 52.3292 150.149 53.3238C150.149 54.2093 150.408 54.8461 150.926 55.2343Z" fill="white"/>
<path d="M177.17 55.2888V59.1643L174.614 59.2552C172.064 59.3401 170.322 58.9156 169.387 57.9816C168.781 57.3873 168.479 56.4715 168.479 55.2343V43.0258H165.6V39.3323H168.479V33.8012H173.818V39.3323H177.17V43.0258H173.818V53.5058C173.818 54.3185 173.926 54.8279 174.14 55.0341C174.355 55.2282 175.011 55.3252 176.109 55.3252C176.274 55.3252 176.444 55.3252 176.621 55.3252C176.81 55.3131 176.993 55.301 177.17 55.2888Z" fill="white"/>
<path d="M186.183 39.1504V58.9823H180.711V39.1504H186.183ZM186.183 32V36.7851H180.711V32H186.183Z" fill="white"/>
<path d="M205.648 40.0601C207.264 41.0548 208.192 42.765 208.432 45.1909H203.035C202.96 44.5238 202.764 43.9962 202.448 43.608C201.855 42.9045 200.845 42.5528 199.419 42.5528C198.245 42.5528 197.405 42.7286 196.9 43.0804C196.408 43.4322 196.162 43.8446 196.162 44.3176C196.162 44.912 196.427 45.3426 196.957 45.6094C197.487 45.8884 199.362 46.3675 202.581 47.0468C204.727 47.532 206.336 48.2658 207.409 49.2483C208.47 50.2429 209 51.4862 209 52.9782C209 54.9432 208.236 56.5503 206.709 57.7997C205.194 59.0369 202.846 59.6555 199.665 59.6555C196.421 59.6555 194.022 59.0005 192.47 57.6905C190.929 56.3684 190.159 54.6884 190.159 52.6507H195.632C195.745 53.5725 195.991 54.2275 196.37 54.6156C197.039 55.307 198.276 55.6527 200.081 55.6527C201.142 55.6527 201.981 55.5011 202.6 55.1979C203.231 54.8946 203.547 54.4398 203.547 53.8333C203.547 53.2511 203.294 52.8083 202.789 52.5051C202.284 52.2019 200.41 51.6803 197.165 50.9404C194.83 50.3824 193.183 49.685 192.223 48.848C191.264 48.0232 190.784 46.8345 190.784 45.2819C190.784 43.4503 191.529 41.8796 193.019 40.5696C194.521 39.2474 196.629 38.5864 199.343 38.5864C201.918 38.5864 204.02 39.0776 205.648 40.0601Z" fill="white"/>
<path d="M177.373 70.319C178.521 70.319 179.669 70.319 180.881 70.1964C183.432 70.1964 186.047 70.1964 188.344 70.0738C181.391 69.89 174.375 69.9512 168.763 69.9512H144.206C124.944 69.9512 98.6662 69.9512 72.5793 70.0738C64.8617 70.0738 57.1441 70.1964 49.4902 70.319C46.6201 70.319 43.7499 70.319 40.8159 70.4415C35.7771 70.4415 30.6746 70.5641 25.6358 70.6867C21.3624 70.6867 16.0685 71.0544 11.4762 70.9931C6.18228 70.9931 2.54671 70.5028 1.39864 69.5835C0.952164 69.2771 0.697036 68.7868 1.65377 68.4804C2.61049 68.1739 3.12075 68.1126 3.69479 68.0514C5.09799 67.8675 6.75632 67.7449 7.58549 67.7449H67.0303C77.363 67.7449 116.334 67.9288 128.644 67.9288C140.954 67.9288 144.972 68.0514 153.136 68.2352C159.897 68.3578 166.721 68.5417 173.674 68.6642C180.371 68.7868 184.389 68.8481 191.214 69.0319H198.549C199.633 69.0319 201.164 69.2158 203.205 69.6448C203.332 70.2577 202.376 70.6254 200.845 70.6254C199.442 70.748 198.357 70.8093 197.656 70.8093C194.913 70.9318 192.362 70.9318 190.385 70.8093C189.109 70.8093 185.155 70.8093 181.774 70.9931H173.929C171.888 70.8705 171.824 70.6254 174.248 70.3802C175.332 70.3802 176.544 70.1964 177.437 70.1964V70.0738L177.373 70.319Z" fill="white"/>
</g>
<defs>
<clipPath id="clip0_3047_11180">
<rect width="209" height="90" fill="white"/>
</clipPath>
</defs>
</svg>
