<svg xmlns="http://www.w3.org/2000/svg" width="768" height="98" fill="none"><g fill="#fff" clip-path="url(#a)"><path d="M206.05 74.5h-.41c-4.42.01-9.67-2.65-11.82-7-.21-.42-.35-.91-.35-1.33 0-1.55 1.31-2.61 2.69-2.61.83 0 1.72.28 2.35 1.19 1.73 2.32 4.71 4.42 7.26 4.41h.35c4.21-.01 6.62-2.41 6.62-4.73.11-9.35-17.96-2.27-17.99-15.63-.02-6.75 6.95-9.02 11.3-9.03h.28c4.76-.01 7.87 2.09 9.05 3 .69.56.97 1.26.97 2.04 0 1.26-1.03 2.53-2.48 2.54-.48 0-.97-.14-1.52-.41-1.45-.7-2.97-1.89-6.08-1.89h-.28c-3.86.01-5.93 1.78-5.99 3.81-.12 7.67 17.95 1.43 17.98 15.43v.28c0 6.45-6.13 9.92-11.93 9.93m58.73-31.51L256.7 72.4c-.27.92-1.1 1.97-2.55 1.97h-.55c-1.24 0-2.35-1.12-2.63-2.03-1.67-6.04-6.13-22.91-6.55-23.96-.34 1.13-4.72 18.02-6.29 24-.2.91-1.24 2.04-2.55 2.04h-.62c-1.45 0-2.28-1.05-2.56-1.96l-8.15-29.37c-.07-.28-.14-.49-.14-.78-.01-1.48 1.1-2.6 2.68-2.61 1.03 0 2.07.56 2.49 1.96l5.99 21.37 6.16-21.47c.34-1.19 1.31-1.9 2.96-1.91h.07c2.07-.01 2.69.84 2.97 1.89l6.33 21.51 5.95-21.47c.41-1.41 1.38-1.97 2.41-1.97 1.59 0 2.69 1.12 2.7 2.6.02.28.02.49-.04.78m11.13-11.21c-1.31 0-2.62-.91-2.63-2.67v-1.55c0-1.76 1.3-2.68 2.62-2.68 1.31-.01 2.63.91 2.63 2.66v1.55c.01 1.76-1.31 2.68-2.62 2.69m.11 42.54c-1.31 0-2.63-.91-2.63-2.66l-.07-29.4c-.01-1.76 1.3-2.68 2.62-2.68 1.31-.01 2.63.9 2.63 2.66l.07 29.4c0 1.76-1.31 2.67-2.62 2.68m23.73-.06h-.41c-4.42.01-9.67-2.64-11.82-7-.21-.42-.35-.92-.35-1.34 0-1.55 1.31-2.61 2.69-2.61.83 0 1.72.28 2.35 1.19 1.73 2.31 4.71 4.42 7.26 4.41h.35c4.21-.01 6.62-2.41 6.61-4.73.11-9.35-17.96-2.27-17.99-15.64-.02-6.75 6.95-9.02 11.3-9.03h.26c4.76-.01 7.88 2.09 9.05 3 .69.56.97 1.26.97 2.04 0 1.26-1.03 2.53-2.48 2.54-.48 0-.97-.14-1.52-.42-1.45-.7-2.97-1.89-6.08-1.88h-.28c-3.87.01-5.93 1.77-5.99 3.81-.12 7.67 17.95 1.43 17.98 15.43v.28c.03 6.47-6.1 9.93-11.9 9.95m31.72-.09h-.41c-4.42.01-9.67-2.64-11.82-7-.21-.42-.35-.92-.35-1.34 0-1.55 1.31-2.61 2.69-2.61.83 0 1.72.28 2.35 1.19 1.73 2.31 4.71 4.42 7.26 4.41h.35c4.21-.01 6.62-2.41 6.61-4.73.11-9.35-17.96-2.27-17.99-15.64-.02-6.75 6.95-9.02 11.3-9.03h.28c4.76-.01 7.88 2.09 9.05 3 .69.56.97 1.26.97 2.04 0 1.26-1.03 2.53-2.48 2.54-.48 0-.97-.14-1.52-.42-1.45-.7-2.97-1.89-6.08-1.88h-.28c-3.87.01-5.93 1.77-5.99 3.81-.12 7.67 17.95 1.43 17.98 15.43v.28c.01 6.48-6.12 9.94-11.92 9.95m76.12-.19c-1.31 0-2.63-.91-2.63-2.66l-.05-20.82c-.01-3.87-2.36-5.9-5.88-5.89h-.62c-3.32.01-5.93 2.62-5.92 6.06l.05 20.53c.01 1.83-1.3 2.82-2.61 2.82s-2.63-.98-2.63-2.81l-.05-20.53c-.01-3.52-2.64-6.04-5.95-6.03h-.62c-3.11.01-5.93 2.19-5.92 5.43l.05 21.31c.01 1.76-1.3 2.68-2.61 2.68s-2.63-.91-2.63-2.66l-.07-29.4c-.01-1.69 1.3-2.68 2.68-2.68 1.1 0 2.28.7 2.56 2.1 1.24-1.27 3.52-2.12 5.93-2.12h.62c3.45-.01 6.5 1.53 8.57 3.99 2.06-2.47 5.1-4.02 8.55-4.03h.62c5.87-.01 11.12 3.49 11.14 11.22l.05 20.82c-.01 1.75-1.32 2.66-2.63 2.67m35.12-.09-.49-.07c-2.35-.35-3.8-1.4-4.7-2.73-2 1.77-4.62 2.83-7.45 2.83h-.62c-5.59.01-11.12-3.56-11.14-10.1v-.84c.45-11.11 15.78-9.18 17.43-11.58.21-.28.21-.84.2-1.19-.01-4.15-2.57-5.69-5.61-5.68h-.48c-2.83.01-4.28 1.21-5.58 3.53-.55.99-1.44 1.41-2.34 1.41-1.31.01-2.63-.98-2.63-2.45 0-.42.07-.84.27-1.26 2.2-5.07 6.61-6.56 10.27-6.57h.48c6.15-.02 10.85 4.75 10.87 10.8l.04 16.32c0 1.26.56 2.11 1.8 2.31 1.52.28 2.21 1.4 2.21 2.53.02 1.39-.87 2.73-2.53 2.74m-6.74-16.86c-5.1 1.42-12.22 1.16-12.41 6.08v.56c.01 3.02 2.36 4.92 5.88 4.91h.62c3.24-.01 5.93-2.69 5.92-5.99zm36.13 16.78c-1.17 0-2.42-.7-2.56-2.1-.97.99-2.96 2.12-5.93 2.13h-.62c-6.21.02-11.2-5.03-11.21-11.29l-.03-12.09c-.02-6.26 4.94-11.33 11.15-11.35h.48c2.42-.01 4.83.83 6.01 2.3l-.04-14.35c-.01-1.76 1.3-2.68 2.62-2.68 1.31 0 2.63.91 2.63 2.66l.11 44.24c.01 1.68-1.3 2.53-2.61 2.53m-2.69-23.98c-.01-3.23-2.78-5.41-5.88-5.4h-.62c-3.32.01-5.93 2.69-5.92 5.99l.03 12.09c.01 3.31 2.64 5.97 5.88 5.96h.69c3.11-.01 5.86-2.13 5.85-5.57zm35.26 8.98-15.05.04.01 3.59c.01 3.31 2.64 5.97 5.88 5.96h.69c2.69-.01 4.48-1.63 5.38-3.6.48-1.2 1.38-1.69 2.27-1.69 1.38 0 2.7 1.19 2.7 2.74 0 .35-.07.77-.27 1.2-1.65 3.94-5.44 6.69-10.06 6.7h-.69c-6.14.02-11.13-5.03-11.14-11.29l-.03-12.09c-.02-6.26 4.94-11.34 11.08-11.35h.69c6.14-.02 11.13 4.82 11.14 11.37l.01 5.77c.01 1.38-1.16 2.65-2.61 2.65m-2.64-8.43c-.01-3.45-2.78-6.04-5.82-6.03h-.69c-3.25.01-5.93 2.69-5.92 5.99l.01 3.52 12.42-.03zm42.62 23.24h-.41c-4.42.01-9.67-2.64-11.82-7-.21-.42-.35-.92-.35-1.34 0-1.55 1.31-2.61 2.69-2.61.83 0 1.72.28 2.35 1.19 1.73 2.31 4.71 4.42 7.26 4.41h.35c4.21-.01 6.62-2.41 6.61-4.73.11-9.36-17.96-2.27-17.99-15.64-.02-6.75 6.95-9.02 11.3-9.03h.27c4.76-.01 7.88 2.09 9.05 3 .69.56.97 1.26.97 2.04 0 1.26-1.03 2.53-2.48 2.54-.48 0-.96-.14-1.52-.42-1.45-.7-2.97-1.89-6.08-1.89h-.28c-3.86.01-5.93 1.77-5.99 3.81-.12 7.67 17.95 1.43 17.98 15.43v.28c.02 6.48-6.11 9.94-11.91 9.96m31.61-.08h-.69c-6.14.02-11.13-5.03-11.14-11.29l-.03-12.09c-.02-6.26 4.94-11.34 11.08-11.35h.69c6.14-.02 11.13 5.04 11.14 11.29l.03 12.1c.02 6.25-4.94 11.32-11.08 11.34m5.81-23.44c-.01-3.3-2.64-5.97-5.88-5.96h-.69c-3.24.01-5.86 2.69-5.85 5.99l.03 12.09c.01 3.31 2.64 5.97 5.95 5.96h.62c3.24-.01 5.86-2.69 5.85-5.99zm25.18-20.74c-2.21.01-3.65 1.77-3.65 3.95l.01 5.63 3.24-.01c1.79-.01 2.63 1.33 2.63 2.67s-.89 2.67-2.62 2.68l-3.24.01.07 26.51c.01 1.76-1.3 2.67-2.62 2.68-1.31 0-2.63-.9-2.63-2.66l-.07-26.51h-1.52c-1.72.01-2.62-1.33-2.63-2.67 0-1.34.89-2.67 2.62-2.68h1.52l-.01-5.63c-.01-5.34 3.77-9.29 8.88-9.31 1.73-.01 2.63 1.33 2.63 2.66.01 1.34-.88 2.68-2.61 2.68m22.94 44.04c-5.04.01-9.05-4.13-9.07-9.26l-.05-19.9-2.41.01c-1.72.01-2.63-1.33-2.63-2.66 0-1.34.89-2.68 2.62-2.68l2.42-.01-.03-12.24c0-1.76 1.3-2.68 2.62-2.68 1.31-.01 2.63.91 2.63 2.66l.03 12.24 3.73-.01c1.73-.01 2.63 1.33 2.63 2.66 0 1.34-.89 2.68-2.62 2.68l-3.73.01.05 19.83c.01 2.46 1.88 3.86 4.02 4 1.66.06 2.42 1.4 2.42 2.66-.02 1.34-.84 2.68-2.63 2.69m50.01-31.5-8.07 29.41c-.27.92-1.1 1.97-2.55 1.98h-.55c-1.24 0-2.35-1.12-2.63-2.03-1.67-6.05-6.13-22.91-6.55-23.96-.34 1.12-4.72 18.01-6.29 24-.21.92-1.24 2.04-2.55 2.05h-.62c-1.45.01-2.28-1.05-2.56-1.96l-8.15-29.37c-.07-.28-.14-.49-.14-.78-.01-1.48 1.09-2.6 2.68-2.61 1.03 0 2.07.56 2.49 1.96l5.99 21.37 6.16-21.47c.34-1.19 1.31-1.9 2.96-1.9h.07c2.07-.01 2.69.84 2.97 1.89l6.33 21.5 5.95-21.46c.41-1.41 1.38-1.97 2.41-1.98 1.59 0 2.69 1.12 2.7 2.6.02.27.02.48-.05.76m30.89 31.28-.49-.07c-2.35-.34-3.8-1.4-4.7-2.73-2 1.77-4.62 2.82-7.45 2.83h-.62c-5.59.01-11.12-3.56-11.14-10.1v-.84c.45-11.11 15.79-9.18 17.43-11.58.21-.28.21-.84.21-1.19-.01-4.15-2.57-5.69-5.61-5.68h-.48c-2.83.01-4.28 1.21-5.58 3.53-.55.98-1.44 1.41-2.34 1.41-1.31 0-2.63-.98-2.63-2.46 0-.42.07-.84.27-1.26 2.2-5.07 6.61-6.56 10.27-6.57h.48c6.15-.01 10.85 4.75 10.87 10.8l.04 16.32c0 1.26.56 2.11 1.8 2.32 1.52.27 2.21 1.4 2.21 2.53 0 1.4-.89 2.74-2.54 2.74m-6.75-16.85c-5.1 1.42-12.21 1.16-12.41 6.08v.56c.01 3.02 2.36 4.92 5.88 4.91h.62c3.24-.01 5.93-2.69 5.92-5.99zm32.18-10.15c-.69 0-1.45-.28-2.14-.98-.56-.56-1.45-1.47-3.18-1.47-4.07.01-4.62 2.4-4.61 4.72l.06 21.87c.01 1.9-1.3 2.82-2.61 2.82s-2.63-.9-2.63-2.8l-.07-29.25c-.01-1.69 1.37-2.68 2.68-2.68.9 0 1.8.41 2.28 1.4 0 0 1.38-1.41 4.97-1.42 2.62-.01 5.52.97 7.19 3.43.48.7.62 1.26.62 1.83-.01 1.47-1.18 2.53-2.56 2.53m28.64 11.95-15.05.04.01 3.59c.01 3.31 2.64 5.97 5.88 5.96h.69c2.69-.01 4.48-1.63 5.38-3.6.48-1.2 1.38-1.69 2.27-1.69 1.38-.01 2.7 1.19 2.7 2.74 0 .35-.07.77-.27 1.2-1.65 3.94-5.43 6.69-10.06 6.71h-.69c-6.14.02-11.13-5.03-11.14-11.29l-.03-12.09c-.02-6.26 4.94-11.33 11.08-11.35h.69c6.14-.02 11.13 4.82 11.14 11.36l.01 5.77c.01 1.38-1.16 2.65-2.61 2.65m-2.64-8.43c-.01-3.45-2.78-6.04-5.82-6.03h-.69c-3.25.01-5.93 2.69-5.92 5.99l.01 3.52 12.43-.03z"/><path fill-rule="evenodd" d="M67.02 13.08h44.47c4.99 0 9.03 4.12 9.02 9.2v65.94c0 5.08-4.04 9.2-9.03 9.2H9.13C4.14 97.42.1 93.3.1 88.22V29.95c0-1.26.26-2.49.74-3.64L9.57 5.66C10.99 2.29 14.25.1 17.86.1H55.8c3.69 0 7.01 2.28 8.38 5.77 0 0 1.44 3.65 2.84 7.21m-2.04 45.59h12.3c2.93 0 4.45-2.27 4.45-4.54 0-2.26-1.52-4.53-4.45-4.53h-12.3V37.06c0-2.99-2.22-4.54-4.45-4.54-2.22 0-4.45 1.56-4.45 4.54V49.6h-12.3c-2.93 0-4.45 2.26-4.45 4.53s1.52 4.54 4.45 4.54h12.3V71.2c0 2.98 2.22 4.53 4.45 4.53 2.22 0 4.45-1.55 4.45-4.53z" clip-rule="evenodd"/></g><defs><clipPath id="a"><path fill="#fff" d="M0 0h768v98H0z"/></clipPath></defs></svg>